{"title":"Kill.Em.All.2013.DVDRIP.Happyviking.avi","uid":7969935,"size":1411971224,"categoryP":"video","categoryS":"movies","magnet":"?xt=urn:btih:89c58dd338f53320dbdc212b6a2f7394e438fde2&amp;dn=Kill.Em.All.2013.DVDRIP.Happyviking.avi&amp;tr=udp%3A%2F%2Ftracker.openbittorrent.com%3A80&amp;tr=udp%3A%2F%2Fopen.demonii.com%3A1337&amp;tr=udp%3A%2F%2Ftracker.coppersurfer.tk%3A6969&amp;tr=udp%3A%2F%2Fexodus.desync.com%3A6969","seeders":0,"leechers":0,"uploader":"Happyviking","files":-1,"time":1356801834,"description":" &lt;a href=&quot;http://www.imdb.com/title/tt1928335/?ref_=sr_1&quot; rel=&quot;nofollow&quot; target=&quot;_NEW&quot;&gt;http://www.imdb.com/title/tt1928335/?ref_=sr_1&lt;/a&gt;\n\n\nGeneral\nComplete name                    : Kill.Em.All.2013.DVDRIP.avi\nFormat                           : AVI\nFormat/Info                      : Audio Video Interleave\nFile size                        : 1.32 GiB\nDuration                         : 1h 26mn\nOverall bit rate                 : 2 184 Kbps\nWriting library                  : VirtualDub build 34807/release\n\nVideo\nID                               : 0\nFormat                           : MPEG-4 Visual\nFormat profile                   : Advanced Simple@L5\nFormat settings, BVOP            : 2\nFormat settings, QPel            : No\nFormat settings, GMC             : No warppoints\nFormat settings, Matrix          : Default (H.263)\nMuxing mode                      : Packed bitstream\nCodec ID                         : XVID\nCodec ID/Hint                    : XviD\nDuration                         : 1h 26mn\nBit rate                         : 1 795 Kbps\nWidth                            : 720 pixels\nHeight                           : 400 pixels\nDisplay aspect ratio             : 16:9\nFrame rate                       : 23.976 fps\nColor space                      : YUV\nChroma subsampling               : 4:2:0\nBit depth                        : 8 bits\nScan type                        : Progressive\nCompression mode                 : Lossy\nBits/(Pixel*Frame)               : 0.260\nStream size                      : 1.08 GiB (82%)\nWriting library                  : XviD 64\n\nAudio\nID                               : 1\nFormat                           : AC-3\nFormat/Info                      : Audio Coding 3\nMode extension                   : CM (complete main)\nCodec ID                         : 2000\nDuration                         : 1h 26mn\nBit rate mode                    : Constant\nBit rate                         : 384 Kbps\nChannel(s)                       : 6 channels\nChannel positions                : Front: L C R, Side: L R, LFE\nSampling rate                    : 48.0 KHz\nBit depth                        : 16 bits\nCompression mode                 : Lossy\nStream size                      : 237 MiB (18%)\nAlignment                        : Split accross interleaves\nInterleave, duration             : 5172214 ms (124 009.00 video frames)","torrent":{"xt":"urn:btih:89c58dd338f53320dbdc212b6a2f7394e438fde2","amp;dn":"Kill.Em.All.2013.DVDRIP.Happyviking.avi","amp;tr":["udp%3A%2F%2Ftracker.openbittorrent.com%3A80","udp%3A%2F%2Fopen.demonii.com%3A1337","udp%3A%2F%2Ftracker.coppersurfer.tk%3A6969","udp%3A%2F%2Fexodus.desync.com%3A6969"],"infoHash":"89c58dd338f53320dbdc212b6a2f7394e438fde2","infoHashBuffer":{"type":"Buffer","data":[137,197,141,211,56,245,51,32,219,220,33,43,106,47,115,148,228,56,253,226]},"announce":[],"urlList":[]}}